<?xml version="1.0" encoding="UTF-8" standalone="no"?>
<!-- Created with Inkscape (http://www.inkscape.org/) -->

<svg
   version="1.1"
   id="svg1"
   width="832"
   height="448"
   viewBox="0 0 832 448"
   sodipodi:docname="header.svg"
   inkscape:version="1.4.1 (93de688d07, 2025-03-30)"
   xml:space="preserve"
   xmlns:inkscape="http://www.inkscape.org/namespaces/inkscape"
   xmlns:sodipodi="http://sodipodi.sourceforge.net/DTD/sodipodi-0.dtd"
   xmlns="http://www.w3.org/2000/svg"
   xmlns:svg="http://www.w3.org/2000/svg"><defs
     id="defs1" /><sodipodi:namedview
     id="namedview1"
     pagecolor="#505050"
     bordercolor="#eeeeee"
     borderopacity="1"
     inkscape:showpageshadow="0"
     inkscape:pageopacity="0"
     inkscape:pagecheckerboard="0"
     inkscape:deskcolor="#505050"
     inkscape:zoom="0.67968751"
     inkscape:cx="505.3793"
     inkscape:cy="77.97701"
     inkscape:window-width="1908"
     inkscape:window-height="1026"
     inkscape:window-x="5"
     inkscape:window-y="47"
     inkscape:window-maximized="1"
     inkscape:current-layer="layer2" /><g
     inkscape:groupmode="layer"
     id="layer2"
     inkscape:label="BACKGROUND"
     style="display:inline;fill:#1f1f1f;fill-opacity:1"
     sodipodi:insensitive="true"><rect
       style="fill:#1f1f1f;fill-opacity:1;stroke-width:2;stroke-linecap:round;stroke-linejoin:round"
       id="rect1"
       width="832"
       height="448"
       x="0"
       y="0" /></g><g
     id="g27"
     inkscape:label="STAGE"
     transform="matrix(1.8162477,0,0,1.8162477,-1301.3526,510.17899)"
     style="stroke-width:2.03882;stroke-dasharray:none"
     sodipodi:insensitive="true"><path
       style="fill:none;stroke:#ffffff;stroke-width:1.92705;stroke-linecap:round;stroke-linejoin:round;stroke-dasharray:none"
       d="m 944.98165,-85.108276 c 7.54701,-0.140346 16.75476,0.355273 25.13632,1.100741 4.14195,0.368391 25.1676,2.328057 20.41669,8.972941 -1.36176,1.904638 -7.06509,3.635247 -9.60243,4.278336 -6.55628,1.661692 -16.22093,2.248672 -26.8095,2.743966 -32.07598,1.500395 -77.93173,-7.350985 -40.3822,-14.844465 10.09253,-2.014091 23.69412,-2.111173 31.24112,-2.251519 z"
       id="path26"
       sodipodi:nodetypes="zsssssz" /><path
       style="fill:none;stroke:#ffffff;stroke-width:1.92705;stroke-linecap:round;stroke-linejoin:round;stroke-dasharray:none"
       d="m 945.09791,-88.811945 c 11.14474,-0.20725 24.74191,0.524635 37.11904,1.625474 6.11646,0.544007 37.16525,3.437864 30.14955,13.250426 -2.011,2.812597 -10.4331,5.368203 -14.18003,6.317859 -9.68172,2.453836 -23.9536,3.320635 -39.58984,4.05204 -47.3669,2.215647 -115.08251,-10.855268 -59.63277,-21.92096 14.90373,-2.974227 34.98933,-3.117589 46.13405,-3.324839 z"
       id="path26-0"
       sodipodi:nodetypes="zsssssz" /><path
       style="fill:none;stroke:#ffffff;stroke-width:1.92705;stroke-linecap:round;stroke-linejoin:round;stroke-dasharray:none"
       d="m 944.72211,-91.976262 c 15.11334,-0.281051 33.55243,0.711456 50.33702,2.204301 8.29447,0.737727 50.39957,4.662077 40.88567,17.968862 -2.7271,3.814154 -14.1483,7.279803 -19.2295,8.567629 -13.1293,3.32764 -32.66727,7.445632 -53.87153,8.437487 -64.2341,3.004633 -155.87913,-17.663324 -80.6839,-32.669474 20.21091,-4.03334 47.44893,-4.227753 62.56224,-4.508805 z"
       id="path26-0-5"
       sodipodi:nodetypes="zsssssz" /><path
       style="fill:none;stroke:#ffffff;stroke-width:1.92705;stroke-linecap:round;stroke-linejoin:round;stroke-dasharray:none"
       d="m 853.977,-74.574711 c 0.29495,-0.07374 -1.90551,9.280975 1.28735,14.436781 3.5262,5.694082 27.31035,21.149425 90.39081,21.149425 63.08044,0 85.88514,-15.632133 89.37934,-19.126436 3.4942,-3.494253 2.3908,-16 2.3908,-16"
       id="path27"
       sodipodi:nodetypes="csssc" /></g><g
     inkscape:groupmode="layer"
     id="layer1"
     inkscape:label="LOCK"
     transform="translate(0,-50.976709)"
     sodipodi:insensitive="true"><g
       id="g25"
       inkscape:label="lines"
       style="stroke-width:3.5;stroke-dasharray:none"><path
         style="fill:none;stroke:#ffffff;stroke-width:1.89029;stroke-linecap:round;stroke-linejoin:round;stroke-dasharray:none"
         d="M 676.13792,-109.88506 H 626.48275"
         id="path11"
         transform="matrix(1.8515701,0,0,1.8515701,-728.84582,504.20698)" /><path
         style="fill:none;stroke:#ffffff;stroke-width:1.89029;stroke-linecap:round;stroke-linejoin:round;stroke-dasharray:none"
         d="m 608.67107,-109.88799 h -48"
         id="path11-0"
         sodipodi:nodetypes="cc"
         transform="matrix(1.8515701,0,0,1.8515701,-728.84582,504.20698)" /><path
         style="fill:none;stroke:#ffffff;stroke-width:1.89029;stroke-linecap:round;stroke-linejoin:round;stroke-dasharray:none"
         d="m 611.03447,-89.471263 v 18.482759"
         id="path12"
         transform="matrix(1.8515701,0,0,1.8515701,-728.84582,504.20698)" /><path
         style="fill:none;stroke:#ffffff;stroke-width:1.89029;stroke-linecap:round;stroke-linejoin:round;stroke-dasharray:none"
         d="m 611,-162.28566 v 20.18391"
         id="path12-2"
         sodipodi:nodetypes="cc"
         transform="matrix(1.8515701,0,0,1.8515701,-728.84582,504.20698)" /><path
         style="fill:none;stroke:#ffffff;stroke-width:1.89029;stroke-linecap:round;stroke-linejoin:round;stroke-dasharray:none"
         d="m 625.19539,-89.103447 v 17.655173"
         id="path13"
         sodipodi:nodetypes="cc"
         transform="matrix(1.8515701,0,0,1.8515701,-728.84582,504.20698)" /><path
         style="fill:none;stroke:#ffffff;stroke-width:1.89029;stroke-linecap:round;stroke-linejoin:round;stroke-dasharray:none"
         d="m 625.1918,-162.24138 v 20.64368"
         id="path13-3"
         sodipodi:nodetypes="cc"
         transform="matrix(1.8515701,0,0,1.8515701,-728.84582,504.20698)" /><path
         style="fill:none;stroke:#ffffff;stroke-width:1.89029;stroke-linecap:round;stroke-linejoin:round;stroke-dasharray:none"
         d="M 675.7701,-124.5977 H 632.1839"
         id="path14"
         transform="matrix(1.8515701,0,0,1.8515701,-728.84582,504.20698)" /><path
         style="fill:none;stroke:#ffffff;stroke-width:1.89029;stroke-linecap:round;stroke-linejoin:round;stroke-dasharray:none"
         d="M 603.63218,-124.5977 H 560.73564"
         id="path14-8"
         sodipodi:nodetypes="cc"
         transform="matrix(1.8515701,0,0,1.8515701,-728.84582,504.20698)" /><path
         style="fill:none;stroke:#ffffff;stroke-width:1.89029;stroke-linecap:round;stroke-linejoin:round;stroke-dasharray:none"
         d="M 675.67815,-138.85057 H 628.68964"
         id="path15"
         transform="matrix(1.8515701,0,0,1.8515701,-728.84582,504.20698)" /><path
         style="fill:none;stroke:#ffffff;stroke-width:1.89029;stroke-linecap:round;stroke-linejoin:round;stroke-dasharray:none"
         d="M 607.17166,-139 H 560.73487"
         id="path15-2"
         sodipodi:nodetypes="cc"
         transform="matrix(1.8515701,0,0,1.8515701,-728.84582,504.20698)" /><path
         style="fill:none;stroke:#ffffff;stroke-width:1.89029;stroke-linecap:round;stroke-linejoin:round;stroke-dasharray:none"
         d="m 574.52831,-163.59362 v -33.68104 c 0,0 8.97294,-34.59134 43.95441,-34.59134 34.98147,0 43.30419,35.63168 43.30419,35.63168 v 33.29091"
         id="path16"
         transform="matrix(1.8515701,0,0,1.8515701,-728.84582,504.20698)" /><path
         style="fill:none;stroke:#ffffff;stroke-width:1.89029;stroke-linecap:round;stroke-linejoin:round;stroke-dasharray:none"
         d="m 580.93309,-163.19893 -0.13004,-31.7304 c 0,0 5.07166,-30.29993 38.62266,-30.29993 28.86947,0 35.89176,30.95015 35.89176,30.95015 l -0.13004,31.21022"
         id="path16-8"
         sodipodi:nodetypes="ccscc"
         transform="matrix(1.8515701,0,0,1.8515701,-728.84582,504.20698)" /><path
         style="fill:none;stroke:#ffffff;stroke-width:1.89029;stroke-linecap:round;stroke-linejoin:round;stroke-dasharray:none"
         d="m 587.7081,-163.43195 v -29.64972 c 0,0 5.2017,-24.57806 32.12053,-24.57806 20.93686,0 28.47933,24.7081 28.47933,24.7081 l -0.13004,30.03985"
         id="path16-3"
         sodipodi:nodetypes="ccscc"
         transform="matrix(1.8515701,0,0,1.8515701,-728.84582,504.20698)" /><path
         style="fill:none;stroke:#ffffff;stroke-width:1.89029;stroke-linecap:round;stroke-linejoin:round;stroke-dasharray:none"
         d="m 648.26248,-176.07771 13.06929,-0.065"
         id="path17"
         sodipodi:nodetypes="cc"
         transform="matrix(1.8515701,0,0,1.8515701,-728.84582,504.20698)" /><path
         style="fill:none;stroke:#ffffff;stroke-width:1.89029;stroke-linecap:round;stroke-linejoin:round;stroke-dasharray:none"
         d="m 648.65261,-192.85321 12.61413,-3.83626"
         id="path18"
         transform="matrix(1.8515701,0,0,1.8515701,-728.84582,504.20698)" /><path
         style="fill:none;stroke:#ffffff;stroke-width:1.89029;stroke-linecap:round;stroke-linejoin:round;stroke-dasharray:none"
         d="m 641.3052,-206.70275 10.59847,-8.51779"
         id="path19"
         sodipodi:nodetypes="cc"
         transform="matrix(1.8515701,0,0,1.8515701,-728.84582,504.20698)" /><path
         style="fill:none;stroke:#ffffff;stroke-width:1.89029;stroke-linecap:round;stroke-linejoin:round;stroke-dasharray:none"
         d="m 627.39064,-216.97612 4.42145,-12.74418"
         id="path20"
         transform="matrix(1.8515701,0,0,1.8515701,-728.84582,504.20698)" /><path
         style="fill:none;stroke:#ffffff;stroke-width:1.89029;stroke-linecap:round;stroke-linejoin:round;stroke-dasharray:none"
         d="m 609.11965,-216.52097 -4.68153,-12.67916"
         id="path21"
         transform="matrix(1.8515701,0,0,1.8515701,-728.84582,504.20698)" /><path
         style="fill:none;stroke:#ffffff;stroke-width:1.89029;stroke-linecap:round;stroke-linejoin:round;stroke-dasharray:none"
         d="m 595.33513,-207.87313 -9.88324,-8.64784"
         id="path22"
         transform="matrix(1.8515701,0,0,1.8515701,-728.84582,504.20698)" /><path
         style="fill:none;stroke:#ffffff;stroke-width:1.89029;stroke-linecap:round;stroke-linejoin:round;stroke-dasharray:none"
         d="m 587.46755,-193.69849 -12.48409,-3.18604"
         id="path23"
         transform="matrix(1.8515701,0,0,1.8515701,-728.84582,504.20698)" /><path
         style="fill:none;stroke:#ffffff;stroke-width:1.89029;stroke-linecap:round;stroke-linejoin:round;stroke-dasharray:none"
         d="m 587.14245,-175.94767 -12.54912,-0.13004"
         id="path24"
         transform="matrix(1.8515701,0,0,1.8515701,-728.84582,504.20698)" /><path
         style="fill:none;stroke:#ffffff;stroke-width:1.89029;stroke-linecap:round;stroke-linejoin:round;stroke-dasharray:none"
         d="m 568.27585,-162.94253 v 92.137934 h 100.04598 l -0.0577,-91.954024 z"
         id="path1"
         sodipodi:nodetypes="ccccc"
         transform="matrix(1.8515701,0,0,1.8515701,-728.84582,504.20698)" /><path
         style="fill:none;stroke:#ffffff;stroke-width:1.89029;stroke-linecap:round;stroke-linejoin:round;stroke-dasharray:none"
         d="m 568.30858,-70.803588 c 0,0 -7.82487,-3.060622 -7.82487,-10.733137 v -71.523445 c 0,0 1.43047,-9.88324 7.80256,-9.88324"
         id="path2"
         sodipodi:nodetypes="cscc"
         transform="matrix(1.8515701,0,0,1.8515701,-728.84582,504.20698)" /><path
         style="fill:none;stroke:#ffffff;stroke-width:1.89029;stroke-linecap:round;stroke-linejoin:round;stroke-dasharray:none"
         d="m 668.32442,-70.805088 c 0,0 7.80188,-2.86522 7.80188,-10.53774 v -71.523442 c 0,0 -1.43047,-9.88324 -7.80256,-9.88324"
         id="path2-5"
         sodipodi:nodetypes="cscc"
         transform="matrix(1.8515701,0,0,1.8515701,-728.84582,504.20698)" /><path
         style="fill:none;stroke:#ffffff;stroke-width:1.89029;stroke-linecap:round;stroke-linejoin:round;stroke-dasharray:none"
         d="m 617.74712,-143.08046 c 0,0 14.89655,0.91954 14.89655,14.71265 -1.01149,10.57471 -8.82759,11.40229 -8.82759,11.40229 l 8.64368,27.402303 h -29.05747 l 7.90804,-27.034483 c 0,0 -8.45977,-4.96552 -8.45977,-11.77011 0,-6.8046 6.06897,-14.71265 14.89656,-14.71265 z"
         id="path3"
         sodipodi:nodetypes="ccccccsc"
         transform="matrix(1.8515701,0,0,1.8515701,-728.84582,504.20698)" /><path
         style="fill:none;stroke:#ffffff;stroke-width:1.89029;stroke-linecap:round;stroke-linejoin:round;stroke-dasharray:none"
         d="M 560.7438,-152.93013 H 675.96156"
         id="path4"
         sodipodi:nodetypes="cc"
         transform="matrix(1.8515701,0,0,1.8515701,-728.84582,504.20698)" /><path
         style="fill:none;stroke:#ffffff;stroke-width:1.89029;stroke-linecap:round;stroke-linejoin:round;stroke-dasharray:none"
         d="m 582.59096,-162.55328 v 91.68005"
         id="path5"
         sodipodi:nodetypes="cc"
         transform="matrix(1.8515701,0,0,1.8515701,-728.84582,504.20698)" /><path
         style="fill:none;stroke:#ffffff;stroke-width:1.89029;stroke-linecap:round;stroke-linejoin:round;stroke-dasharray:none"
         d="m 596.63556,-162.16315 v 90.899792"
         id="path6"
         sodipodi:nodetypes="cc"
         transform="matrix(1.8515701,0,0,1.8515701,-728.84582,504.20698)" /><path
         style="fill:none;stroke:#ffffff;stroke-width:1.89029;stroke-linecap:round;stroke-linejoin:round;stroke-dasharray:none"
         d="m 639.67967,-162.03311 v 90.379624"
         id="path7"
         sodipodi:nodetypes="cc"
         transform="matrix(1.8515701,0,0,1.8515701,-728.84582,504.20698)" /><path
         style="fill:none;stroke:#ffffff;stroke-width:1.89029;stroke-linecap:round;stroke-linejoin:round;stroke-dasharray:none"
         d="m 654.37448,-162.29319 v 90.899789"
         id="path8"
         sodipodi:nodetypes="cc"
         transform="matrix(1.8515701,0,0,1.8515701,-728.84582,504.20698)" /><path
         style="fill:none;stroke:#ffffff;stroke-width:1.89029;stroke-linecap:round;stroke-linejoin:round;stroke-dasharray:none"
         d="M 676.0916,-81.27664 H 560.48371"
         id="path9"
         transform="matrix(1.8515701,0,0,1.8515701,-728.84582,504.20698)" /><path
         style="fill:none;stroke:#ffffff;stroke-width:1.89029;stroke-linecap:round;stroke-linejoin:round;stroke-dasharray:none"
         d="M 604.43812,-95.841414 H 560.68339"
         id="path10"
         sodipodi:nodetypes="cc"
         transform="matrix(1.8515701,0,0,1.8515701,-728.84582,504.20698)" /><path
         style="fill:none;stroke:#ffffff;stroke-width:1.89029;stroke-linecap:round;stroke-linejoin:round;stroke-dasharray:none"
         d="M 675.52485,-95.862069 H 630.8046"
         id="path10-7"
         sodipodi:nodetypes="cc"
         transform="matrix(1.8515701,0,0,1.8515701,-728.84582,504.20698)" /></g><g
       id="g26"
       inkscape:label="dots"><circle
         style="fill:#ffffff;stroke:none;stroke-width:1.37753;stroke-linecap:round;stroke-linejoin:round"
         id="path25"
         cy="202.78024"
         cx="323.45981"
         r="3.75" /><circle
         style="fill:#ffffff;stroke:none;stroke-width:1.37753;stroke-linecap:round;stroke-linejoin:round"
         id="path25-6"
         cy="220.74098"
         cx="309.23886"
         r="3.75" /><circle
         style="fill:#ffffff;stroke:none;stroke-width:1.37753;stroke-linecap:round;stroke-linejoin:round"
         id="path25-2"
         cy="220.70064"
         cx="323.64346"
         r="3.75" /><circle
         style="fill:#ffffff;stroke:none;stroke-width:1.37753;stroke-linecap:round;stroke-linejoin:round"
         id="path25-5"
         cy="246.5706"
         cx="309.13348"
         r="3.75" /><circle
         style="fill:#ffffff;stroke:none;stroke-width:1.37753;stroke-linecap:round;stroke-linejoin:round"
         id="path25-69"
         cy="246.66029"
         cx="323.12872"
         r="3.75" /><circle
         style="fill:#ffffff;stroke:none;stroke-width:1.37753;stroke-linecap:round;stroke-linejoin:round"
         id="path25-25"
         cy="272.91138"
         cx="309.16479"
         r="3.75" /><circle
         style="fill:#ffffff;stroke:none;stroke-width:1.37753;stroke-linecap:round;stroke-linejoin:round"
         id="path25-3"
         cy="273.41705"
         cx="323.17383"
         r="3.75" /><circle
         style="fill:#ffffff;stroke:none;stroke-width:1.37753;stroke-linecap:round;stroke-linejoin:round"
         id="path25-8"
         cy="300.37671"
         cx="308.83307"
         r="3.75" /><circle
         style="fill:#ffffff;stroke:none;stroke-width:1.37753;stroke-linecap:round;stroke-linejoin:round"
         id="path25-4"
         cy="300.40021"
         cx="323.56702"
         r="3.75" /><circle
         style="fill:#ffffff;stroke:none;stroke-width:1.37753;stroke-linecap:round;stroke-linejoin:round"
         id="path25-89"
         cy="326.38455"
         cx="323.48993"
         r="3.75" /><circle
         style="fill:#ffffff;stroke:none;stroke-width:1.37753;stroke-linecap:round;stroke-linejoin:round"
         id="path25-9"
         cy="326.20514"
         cx="308.93298"
         r="3.75" /><circle
         style="fill:#ffffff;stroke:none;stroke-width:1.37753;stroke-linecap:round;stroke-linejoin:round"
         id="path25-7"
         cy="353.50439"
         cx="309.31171"
         r="3.75" /><circle
         style="fill:#ffffff;stroke:none;stroke-width:1.37753;stroke-linecap:round;stroke-linejoin:round"
         id="path25-22"
         cy="353.82404"
         cx="323.67715"
         r="3.75" /><circle
         style="fill:#ffffff;stroke:none;stroke-width:1.37753;stroke-linecap:round;stroke-linejoin:round"
         id="path25-1"
         cy="371.95953"
         cx="323.32974"
         r="3.75" /><circle
         style="fill:#ffffff;stroke:none;stroke-width:1.37753;stroke-linecap:round;stroke-linejoin:round"
         id="path25-0"
         cy="372.36771"
         cx="350.26352"
         r="3.75" /><circle
         style="fill:#ffffff;stroke:none;stroke-width:1.37753;stroke-linecap:round;stroke-linejoin:round"
         id="path25-11"
         cy="353.61331"
         cx="349.77588"
         r="3.75" /><circle
         style="fill:#ffffff;stroke:none;stroke-width:1.37753;stroke-linecap:round;stroke-linejoin:round"
         id="path25-67"
         cy="326.77469"
         cx="349.68497"
         r="3.75" /><circle
         style="fill:#ffffff;stroke:none;stroke-width:1.37753;stroke-linecap:round;stroke-linejoin:round"
         id="path25-39"
         cy="299.75"
         cx="349.75"
         r="3.75" /><circle
         style="fill:#ffffff;stroke:none;stroke-width:1.37753;stroke-linecap:round;stroke-linejoin:round"
         id="path25-93"
         cy="272.75"
         cx="349.75"
         r="3.75" /><circle
         style="fill:#ffffff;stroke:none;stroke-width:1.37753;stroke-linecap:round;stroke-linejoin:round"
         id="path25-50"
         cy="246.75"
         cx="349.75"
         r="3.75" /><circle
         style="fill:#ffffff;stroke:none;stroke-width:1.37753;stroke-linecap:round;stroke-linejoin:round"
         id="path25-56"
         cy="220.75"
         cx="349.75"
         r="3.75" /><circle
         style="fill:#ffffff;stroke:none;stroke-width:1.37753;stroke-linecap:round;stroke-linejoin:round"
         id="path25-84"
         cy="203.00288"
         cx="349.97989"
         r="3.75" /><circle
         style="fill:#ffffff;stroke:none;stroke-width:1.37753;stroke-linecap:round;stroke-linejoin:round"
         id="path25-04"
         cy="202.60057"
         cx="346.77298"
         r="3.75" /><circle
         style="fill:#ffffff;stroke:none;stroke-width:1.37753;stroke-linecap:round;stroke-linejoin:round"
         id="path25-63"
         cy="202.75"
         cx="334.75"
         r="3.75" /><circle
         style="fill:#ffffff;stroke:none;stroke-width:1.37753;stroke-linecap:round;stroke-linejoin:round"
         id="path25-62"
         cy="201.75"
         cx="359.75"
         r="3.75" /><circle
         style="fill:#ffffff;stroke:none;stroke-width:1.37753;stroke-linecap:round;stroke-linejoin:round"
         id="path25-74"
         cy="202.75"
         cx="376.75"
         r="3.75" /><circle
         style="fill:#ffffff;stroke:none;stroke-width:1.37753;stroke-linecap:round;stroke-linejoin:round"
         id="path25-75"
         cy="202.75"
         cx="402.75"
         r="3.75" /><circle
         style="fill:#ffffff;stroke:none;stroke-width:1.37753;stroke-linecap:round;stroke-linejoin:round"
         id="path25-18"
         cy="202.75"
         cx="428.75"
         r="3.75" /><circle
         style="fill:#ffffff;stroke:none;stroke-width:1.37753;stroke-linecap:round;stroke-linejoin:round"
         id="path25-33"
         cy="202.75"
         cx="455.75"
         r="3.75" /><circle
         style="fill:#ffffff;stroke:none;stroke-width:1.37753;stroke-linecap:round;stroke-linejoin:round"
         id="path25-88"
         cy="202.75"
         cx="470.75"
         r="3.75" /><circle
         style="fill:#ffffff;stroke:none;stroke-width:1.37753;stroke-linecap:round;stroke-linejoin:round"
         id="path25-64"
         cy="202.75"
         cx="482.75"
         r="3.75" /><circle
         style="fill:#ffffff;stroke:none;stroke-width:1.37753;stroke-linecap:round;stroke-linejoin:round"
         id="path25-92"
         cy="202.75"
         cx="483.75"
         r="3.75" /><circle
         style="fill:#ffffff;stroke:none;stroke-width:1.37753;stroke-linecap:round;stroke-linejoin:round"
         id="path25-94"
         cy="201.75"
         cx="496.75"
         r="3.75" /><circle
         style="fill:#ffffff;stroke:none;stroke-width:1.37753;stroke-linecap:round;stroke-linejoin:round"
         id="path25-47"
         cy="202.84195"
         cx="508.30173"
         r="3.75" /><circle
         style="fill:#ffffff;stroke:none;stroke-width:1.37753;stroke-linecap:round;stroke-linejoin:round"
         id="path25-80"
         cy="220.75"
         cx="522.75"
         r="3.75" /><circle
         style="fill:#ffffff;stroke:none;stroke-width:1.37753;stroke-linecap:round;stroke-linejoin:round"
         id="path25-110"
         cy="220.75"
         cx="507.75"
         r="3.75" /><circle
         style="fill:#ffffff;stroke:none;stroke-width:1.37753;stroke-linecap:round;stroke-linejoin:round"
         id="path25-46"
         cy="220.75"
         cx="482.75"
         r="3.75" /><circle
         style="fill:#ffffff;stroke:none;stroke-width:1.37753;stroke-linecap:round;stroke-linejoin:round"
         id="path25-28"
         cy="220.75"
         cx="455.75"
         r="3.75" /><circle
         style="fill:#ffffff;stroke:none;stroke-width:1.37753;stroke-linecap:round;stroke-linejoin:round"
         id="path25-06"
         cy="220.75"
         cx="428.75"
         r="3.75" /><circle
         style="fill:#ffffff;stroke:none;stroke-width:1.37753;stroke-linecap:round;stroke-linejoin:round"
         id="path25-81"
         cy="220.75"
         cx="402.75"
         r="3.75" /><circle
         style="fill:#ffffff;stroke:none;stroke-width:1.37753;stroke-linecap:round;stroke-linejoin:round"
         id="path25-96"
         cy="220.75"
         cx="375.75"
         r="3.75" /><circle
         style="fill:#ffffff;stroke:none;stroke-width:1.37753;stroke-linecap:round;stroke-linejoin:round"
         id="path25-05"
         cy="246.75"
         cx="374.75"
         r="3.75" /><circle
         style="fill:#ffffff;stroke:none;stroke-width:1.37753;stroke-linecap:round;stroke-linejoin:round"
         id="path25-042"
         cy="246.75"
         cx="454.75"
         r="3.75" /><circle
         style="fill:#ffffff;stroke:none;stroke-width:1.37753;stroke-linecap:round;stroke-linejoin:round"
         id="path25-42"
         cy="272.75"
         cx="455.75"
         r="3.75" /><circle
         style="fill:#ffffff;stroke:none;stroke-width:1.37753;stroke-linecap:round;stroke-linejoin:round"
         id="path25-52"
         cy="247.75"
         cx="482.75"
         r="3.75" /><circle
         style="fill:#ffffff;stroke:none;stroke-width:1.37753;stroke-linecap:round;stroke-linejoin:round"
         id="path25-38"
         cy="272.75"
         cx="482.75"
         r="3.75" /><circle
         style="fill:#ffffff;stroke:none;stroke-width:1.37753;stroke-linecap:round;stroke-linejoin:round"
         id="path25-19"
         cy="247.75"
         cx="508.75"
         r="3.75" /><circle
         style="fill:#ffffff;stroke:none;stroke-width:1.37753;stroke-linecap:round;stroke-linejoin:round"
         id="path25-49"
         cy="272.75"
         cx="508.75"
         r="3.75" /><circle
         style="fill:#ffffff;stroke:none;stroke-width:1.37753;stroke-linecap:round;stroke-linejoin:round"
         id="path25-502"
         cy="246.75"
         cx="522.75"
         r="3.75" /><circle
         style="fill:#ffffff;stroke:none;stroke-width:1.37753;stroke-linecap:round;stroke-linejoin:round"
         id="path25-17"
         cy="272.75"
         cx="521.75"
         r="3.75" /><circle
         style="fill:#ffffff;stroke:none;stroke-width:1.37753;stroke-linecap:round;stroke-linejoin:round"
         id="path25-694"
         cy="300.75"
         cx="522.75"
         r="3.75" /><circle
         style="fill:#ffffff;stroke:none;stroke-width:1.37753;stroke-linecap:round;stroke-linejoin:round"
         id="path25-12"
         cy="-300.75"
         cx="508.75"
         r="3.75"
         transform="scale(1,-1)" /><circle
         style="fill:#ffffff;stroke:none;stroke-width:1.37753;stroke-linecap:round;stroke-linejoin:round"
         id="path25-888"
         cy="300.75"
         cx="455.75"
         r="3.75" /><circle
         style="fill:#ffffff;stroke:none;stroke-width:1.378;stroke-linecap:round;stroke-linejoin:round;stroke-dasharray:none"
         id="path25-333"
         cy="300.75"
         cx="482.75"
         r="3.75" /><circle
         style="fill:#ffffff;stroke:none;stroke-width:1.37753;stroke-linecap:round;stroke-linejoin:round"
         id="path25-68"
         cy="325.75"
         cx="455.75"
         r="3.75" /><circle
         style="fill:#ffffff;stroke:none;stroke-width:1.37753;stroke-linecap:round;stroke-linejoin:round"
         id="path25-79"
         cy="326.75"
         cx="482.75"
         r="3.75" /><circle
         style="fill:#ffffff;stroke:none;stroke-width:1.37753;stroke-linecap:round;stroke-linejoin:round"
         id="path25-73"
         cy="326.75"
         cx="508.75"
         r="3.75" /><circle
         style="fill:#ffffff;stroke:none;stroke-width:1.37753;stroke-linecap:round;stroke-linejoin:round"
         id="path25-65"
         cy="326.75"
         cx="522.75"
         r="3.75" /><circle
         style="fill:#ffffff;stroke:none;stroke-width:1.37753;stroke-linecap:round;stroke-linejoin:round"
         id="path25-041"
         cy="353.75"
         cx="522.75"
         r="3.75" /><circle
         style="fill:#ffffff;stroke:none;stroke-width:1.37753;stroke-linecap:round;stroke-linejoin:round"
         id="path25-08"
         cy="352.75"
         cx="508.75"
         r="3.75" /><circle
         style="fill:#ffffff;stroke:none;stroke-width:1.37753;stroke-linecap:round;stroke-linejoin:round"
         id="path25-939"
         cy="353.75"
         cx="482.75"
         r="3.75" /><circle
         style="fill:#ffffff;stroke:none;stroke-width:1.37753;stroke-linecap:round;stroke-linejoin:round"
         id="path25-178"
         cy="353.75"
         cx="455.75"
         r="3.75" /><circle
         style="fill:#ffffff;stroke:none;stroke-width:1.37753;stroke-linecap:round;stroke-linejoin:round"
         id="path25-925"
         cy="372.75"
         cx="455.75"
         r="3.75" /><circle
         style="fill:#ffffff;stroke:none;stroke-width:1.37753;stroke-linecap:round;stroke-linejoin:round"
         id="path25-45"
         cy="372.75"
         cx="482.75"
         r="3.75" /><circle
         style="fill:#ffffff;stroke:none;stroke-width:1.37753;stroke-linecap:round;stroke-linejoin:round"
         id="path25-081"
         cy="371.75"
         cx="508.75"
         r="3.75" /><circle
         style="fill:#ffffff;stroke:none;stroke-width:1.37753;stroke-linecap:round;stroke-linejoin:round"
         id="path25-253"
         cy="353.75"
         cx="428.75"
         r="3.75" /><circle
         style="fill:#ffffff;stroke:none;stroke-width:1.37753;stroke-linecap:round;stroke-linejoin:round"
         id="path25-01"
         cy="373.75"
         cx="428.75"
         r="3.75" /><circle
         style="fill:#ffffff;stroke:none;stroke-width:1.37753;stroke-linecap:round;stroke-linejoin:round"
         id="path25-20"
         cy="352.75"
         cx="402.75"
         r="3.75" /><circle
         style="fill:#ffffff;stroke:none;stroke-width:1.37753;stroke-linecap:round;stroke-linejoin:round"
         id="path25-90"
         cy="372.75"
         cx="401.75"
         r="3.75" /><circle
         style="fill:#ffffff;stroke:none;stroke-width:1.37753;stroke-linecap:round;stroke-linejoin:round"
         id="path25-40"
         cy="352.75"
         cx="374.75"
         r="3.75" /><circle
         style="fill:#ffffff;stroke:none;stroke-width:1.37753;stroke-linecap:round;stroke-linejoin:round"
         id="path25-85"
         cy="372.75"
         cx="374.75"
         r="3.75" /><circle
         style="fill:#ffffff;stroke:none;stroke-width:1.37753;stroke-linecap:round;stroke-linejoin:round"
         id="path25-66"
         cy="326.75"
         cx="375.75"
         r="3.75" /><circle
         style="fill:#ffffff;stroke:none;stroke-width:1.37753;stroke-linecap:round;stroke-linejoin:round"
         id="path25-960"
         cy="300.75"
         cx="375.75"
         r="3.75" /><circle
         style="fill:#ffffff;stroke:none;stroke-width:1.37753;stroke-linecap:round;stroke-linejoin:round"
         id="path25-13"
         cy="272.75"
         cx="375.75"
         r="3.75" /><circle
         style="fill:#ffffff;stroke:none;stroke-width:1.37753;stroke-linecap:round;stroke-linejoin:round"
         id="path25-452"
         cy="178.75"
         cx="358.75"
         r="3.75" /><circle
         style="fill:#ffffff;stroke:none;stroke-width:1.37753;stroke-linecap:round;stroke-linejoin:round"
         id="path25-99"
         cy="177.75"
         cx="345.75"
         r="3.75" /><circle
         style="fill:#ffffff;stroke:none;stroke-width:1.37753;stroke-linecap:round;stroke-linejoin:round"
         id="path25-37"
         cy="176.75"
         cx="333.75"
         r="3.75" /><circle
         style="fill:#ffffff;stroke:none;stroke-width:1.37753;stroke-linecap:round;stroke-linejoin:round"
         id="path25-467"
         cy="145.75"
         cx="359.75"
         r="3.75" /><circle
         style="fill:#ffffff;stroke:none;stroke-width:1.37753;stroke-linecap:round;stroke-linejoin:round"
         id="path25-59"
         cy="141.75"
         cx="346.75"
         r="3.75" /><circle
         style="fill:#ffffff;stroke:none;stroke-width:1.37753;stroke-linecap:round;stroke-linejoin:round"
         id="path25-383"
         cy="137.75"
         cx="334.75"
         r="3.75" /><circle
         style="fill:#ffffff;stroke:none;stroke-width:1.37753;stroke-linecap:round;stroke-linejoin:round"
         id="path25-87"
         cy="101.75"
         cx="353.75"
         r="3.75" /><circle
         style="fill:#ffffff;stroke:none;stroke-width:1.37753;stroke-linecap:round;stroke-linejoin:round"
         id="path25-98"
         cy="109.75"
         cx="362.75"
         r="3.75" /><circle
         style="fill:#ffffff;stroke:none;stroke-width:1.37753;stroke-linecap:round;stroke-linejoin:round"
         id="path25-371"
         cy="119.75"
         cx="373.75"
         r="3.75" /><circle
         style="fill:#ffffff;stroke:none;stroke-width:1.37753;stroke-linecap:round;stroke-linejoin:round"
         id="path25-799"
         cy="103.75"
         cx="398.75"
         r="3.75" /><circle
         style="fill:#ffffff;stroke:none;stroke-width:1.37753;stroke-linecap:round;stroke-linejoin:round"
         id="path25-71"
         cy="89.75"
         cx="394.75"
         r="3.75" /><circle
         style="fill:#ffffff;stroke:none;stroke-width:1.37753;stroke-linecap:round;stroke-linejoin:round"
         id="path25-175"
         cy="78.75"
         cx="390.18048"
         r="3.75" /><circle
         style="fill:#ffffff;stroke:none;stroke-width:1.37753;stroke-linecap:round;stroke-linejoin:round"
         id="path25-711"
         cy="77.75"
         cx="440.75"
         r="3.75" /><circle
         style="fill:#ffffff;stroke:none;stroke-width:1.37753;stroke-linecap:round;stroke-linejoin:round"
         id="path25-085"
         cy="90.75"
         cx="436.75"
         r="3.75" /><circle
         style="fill:#ffffff;stroke:none;stroke-width:1.37753;stroke-linecap:round;stroke-linejoin:round"
         id="path25-196"
         cy="102.75"
         cx="432.75"
         r="3.75" /><circle
         style="fill:#ffffff;stroke:none;stroke-width:1.37753;stroke-linecap:round;stroke-linejoin:round"
         id="path25-10"
         cy="105.75"
         cx="478.75"
         r="3.75" /><circle
         style="fill:#ffffff;stroke:none;stroke-width:1.37753;stroke-linecap:round;stroke-linejoin:round"
         id="path25-564"
         cy="112.75"
         cx="467.75"
         r="3.75" /><circle
         style="fill:#ffffff;stroke:none;stroke-width:1.37753;stroke-linecap:round;stroke-linejoin:round"
         id="path25-749"
         cy="121.75"
         cx="457.75"
         r="3.75" /><circle
         style="fill:#ffffff;stroke:none;stroke-width:1.37753;stroke-linecap:round;stroke-linejoin:round"
         id="path25-0853"
         cy="139.75"
         cx="496.75"
         r="3.75" /><circle
         style="fill:#ffffff;stroke:none;stroke-width:1.37753;stroke-linecap:round;stroke-linejoin:round"
         id="path25-41"
         cy="143.75"
         cx="483.75"
         r="3.75" /><circle
         style="fill:#ffffff;stroke:none;stroke-width:1.37753;stroke-linecap:round;stroke-linejoin:round"
         id="path25-83"
         cy="146.75"
         cx="471.75"
         r="3.75" /><circle
         style="fill:#ffffff;stroke:none;stroke-width:1.37753;stroke-linecap:round;stroke-linejoin:round"
         id="path25-27"
         cy="176.75"
         cx="495.75"
         r="3.75" /><circle
         style="fill:#ffffff;stroke:none;stroke-width:1.37753;stroke-linecap:round;stroke-linejoin:round"
         id="path25-36"
         cy="177.75"
         cx="484.75"
         r="3.75" /><circle
         style="fill:#ffffff;stroke:none;stroke-width:1.37753;stroke-linecap:round;stroke-linejoin:round"
         id="path25-397"
         cy="177.75"
         cx="470.75"
         r="3.75" /></g></g><g
     id="g34"
     inkscape:label="GLOBE"
     transform="matrix(6.1559305,0,0,6.1559305,-5400.0659,1210.4993)"><path
       style="fill:none;stroke:#ffffff;stroke-width:0.16244498;stroke-linecap:round;stroke-linejoin:round;stroke-dasharray:none"
       d="m 944.88971,-226.53425 c 0,0 18.20596,-1.04034 18.20596,74.64447 0,53.057385 -19.2463,57.73892 -19.2463,57.73892"
       id="path29"
       sodipodi:nodetypes="ccc" /><path
       style="fill:none;stroke:#ffffff;stroke-width:0.16244498;stroke-linecap:round;stroke-linejoin:round;stroke-dasharray:none"
       d="m 944.78886,-226.3529 c 0,0 71.26334,-1.04034 71.26334,74.64447 0,53.05738 -72.30368,57.738915 -72.30368,57.738915"
       id="path29-6"
       sodipodi:nodetypes="ccc" /><path
       style="fill:none;stroke:#ffffff;stroke-width:0.16244498;stroke-linecap:round;stroke-linejoin:round;stroke-dasharray:none"
       d="m 944.86503,-226.45445 c 0,0 60.87267,-1.04034 60.87267,74.64447 0,53.05739 -61.91301,57.738921 -61.91301,57.738921"
       id="path29-1"
       sodipodi:nodetypes="ccc" /><path
       style="fill:none;stroke:#ffffff;stroke-width:0.16244498;stroke-linecap:round;stroke-linejoin:round;stroke-dasharray:none"
       d="m 945.64979,-226.45688 c 0,0 41.35355,-2.60085 41.35355,73.08396 0,53.05739 -42.39389,59.299432 -42.39389,59.299432"
       id="path29-3"
       sodipodi:nodetypes="ccc" /><path
       style="fill:none;stroke:#ffffff;stroke-width:0.16244498;stroke-linecap:round;stroke-linejoin:round;stroke-dasharray:none"
       d="m 944.6917,-226.53969 c 0,0 -18.20596,-1.04034 -18.20596,74.64447 0,53.057385 19.2463,57.738915 19.2463,57.738915"
       id="path29-8"
       sodipodi:nodetypes="ccc" /><path
       style="fill:none;stroke:#ffffff;stroke-width:0.16244498;stroke-linecap:round;stroke-linejoin:round;stroke-dasharray:none"
       d="m 944.79255,-226.35834 c 0,0 -71.26334,-1.04034 -71.26334,74.64447 0,53.057375 72.30368,57.738905 72.30368,57.738905"
       id="path29-6-0"
       sodipodi:nodetypes="ccc" /><path
       style="fill:none;stroke:#ffffff;stroke-width:0.16244498;stroke-linecap:round;stroke-linejoin:round;stroke-dasharray:none"
       d="m 944.71638,-226.45989 c 0,0 -60.87267,-1.04034 -60.87267,74.64447 0,53.057385 61.91301,57.738915 61.91301,57.738915"
       id="path29-1-4"
       sodipodi:nodetypes="ccc" /><path
       style="fill:none;stroke:#ffffff;stroke-width:0.16244498;stroke-linecap:round;stroke-linejoin:round;stroke-dasharray:none"
       d="m 943.93162,-226.46232 c 0,0 -41.35355,-2.60085 -41.35355,73.08396 0,53.05739 42.39389,59.299425 42.39389,59.299425"
       id="path29-3-1"
       sodipodi:nodetypes="ccc" /><ellipse
       style="fill:none;stroke:#ffffff;stroke-width:0.16244498;stroke-linecap:round;stroke-linejoin:round;stroke-dasharray:none"
       id="path30"
       ry="11.833879"
       rx="69.882118"
       cy="-136.15463"
       cx="945.93005" /><ellipse
       style="fill:none;stroke:#ffffff;stroke-width:0.16244498;stroke-linecap:round;stroke-linejoin:round;stroke-dasharray:none"
       id="path31"
       ry="10.858559"
       rx="70.555153"
       cy="-163.90819"
       cx="944.92303" /><ellipse
       style="fill:none;stroke:#ffffff;stroke-width:0.16244498;stroke-linecap:round;stroke-linejoin:round;stroke-dasharray:none"
       id="path32"
       ry="8.4527702"
       rx="62.747334"
       cy="-190.09244"
       cx="944.79657" /><ellipse
       style="fill:none;stroke:#ffffff;stroke-width:0.16244498;stroke-linecap:round;stroke-linejoin:round;stroke-dasharray:none"
       id="path33"
       ry="9.2330265"
       rx="46.60096"
       cy="-110.1461"
       cx="945.40985" /><ellipse
       style="fill:none;stroke:#ffffff;stroke-width:0.16244498;stroke-linecap:round;stroke-linejoin:round;stroke-dasharray:none"
       id="path34"
       cx="943.54022"
       cy="-212.09195"
       rx="40.835709"
       ry="7.4022989" /></g></svg>
